<svg width="current" height="current" viewBox="0 0 24 24" fill="none" xmlns="http://www.w3.org/2000/svg">
<path d="M22.5 6.00005C22.5 5.2044 22.1839 4.44134 21.6213 3.87873C21.0587 3.31612 20.2956 3.00005 19.5 3.00005H18.75V2.27115C18.75 1.86755 18.4397 1.52115 18.0361 1.50099C17.9347 1.49611 17.8333 1.51186 17.7382 1.5473C17.6431 1.58274 17.5561 1.63712 17.4826 1.70716C17.4091 1.77719 17.3506 1.86142 17.3106 1.95474C17.2706 2.04806 17.25 2.14853 17.25 2.25005V3.00005H6.75V2.27115C6.75 1.86755 6.43969 1.52115 6.03609 1.50099C5.93469 1.49611 5.83334 1.51186 5.7382 1.5473C5.64307 1.58274 5.55611 1.63712 5.48261 1.70716C5.40911 1.77719 5.3506 1.86142 5.31062 1.95474C5.27063 2.04806 5.25001 2.14853 5.25 2.25005V3.00005H4.5C3.70435 3.00005 2.94129 3.31612 2.37868 3.87873C1.81607 4.44134 1.5 5.2044 1.5 6.00005V6.56255C1.5 6.61228 1.51975 6.65997 1.55492 6.69514C1.59008 6.7303 1.63777 6.75005 1.6875 6.75005H22.3125C22.3622 6.75005 22.4099 6.7303 22.4451 6.69514C22.4802 6.65997 22.5 6.61228 22.5 6.56255V6.00005Z" fill="current"/>
<path d="M1.5 19.5C1.5 20.2956 1.81607 21.0587 2.37868 21.6213C2.94129 22.1839 3.70435 22.5 4.5 22.5H19.5C20.2956 22.5 21.0587 22.1839 21.6213 21.6213C22.1839 21.0587 22.5 20.2956 22.5 19.5V8.4375C22.5 8.38777 22.4802 8.34008 22.4451 8.30492C22.4099 8.26975 22.3622 8.25 22.3125 8.25H1.6875C1.63777 8.25 1.59008 8.26975 1.55492 8.30492C1.51975 8.34008 1.5 8.38777 1.5 8.4375V19.5Z" fill="current"/>
</svg>
