<svg width="current" height="current" viewBox="0 0 24 24" fill="none" xmlns="http://www.w3.org/2000/svg">
<path d="M21.5598 2.49611C21.4913 2.42085 21.4082 2.36025 21.3157 2.31799C21.2231 2.27573 21.1229 2.25267 21.0212 2.25022C20.9194 2.24777 20.8183 2.26596 20.7237 2.30371C20.6292 2.34147 20.5434 2.39798 20.4713 2.46986L19.8915 3.04689C19.8212 3.11721 19.7817 3.21255 19.7817 3.31197C19.7817 3.41138 19.8212 3.50673 19.8915 3.57704L20.423 4.10767C20.4579 4.14268 20.4993 4.17046 20.5449 4.18941C20.5905 4.20837 20.6394 4.21812 20.6888 4.21812C20.7382 4.21812 20.7871 4.20837 20.8327 4.18941C20.8784 4.17046 20.9198 4.14268 20.9546 4.10767L21.5199 3.54517C21.8059 3.2597 21.8326 2.7947 21.5598 2.49611Z" fill="current"/>
<path d="M18.7191 4.21873L10.2572 12.6656C10.2059 12.7167 10.1686 12.7801 10.149 12.8498L9.75756 14.0156C9.74818 14.0472 9.74752 14.0808 9.75564 14.1128C9.76375 14.1448 9.78035 14.174 9.80368 14.1973C9.82701 14.2206 9.85621 14.2372 9.88818 14.2453C9.92016 14.2535 9.95374 14.2528 9.98537 14.2434L11.1502 13.852C11.2199 13.8323 11.2833 13.795 11.3344 13.7437L19.7813 5.28091C19.8595 5.20193 19.9033 5.09531 19.9033 4.98419C19.9033 4.87308 19.8595 4.76646 19.7813 4.68748L19.3149 4.21873C19.2358 4.13987 19.1287 4.09558 19.017 4.09558C18.9053 4.09558 18.7982 4.13987 18.7191 4.21873Z" fill="current"/>
<path d="M18.1097 9.07781L12.3961 14.8027C12.1753 15.024 11.9039 15.1883 11.6053 15.2812L10.3912 15.6877C10.1031 15.769 9.79851 15.7721 9.5088 15.6965C9.2191 15.621 8.95477 15.4696 8.74307 15.2579C8.53136 15.0462 8.37994 14.7818 8.30439 14.4921C8.22885 14.2024 8.23192 13.8978 8.31328 13.6097L8.71969 12.3956C8.81238 12.0972 8.97632 11.8258 9.19734 11.6048L14.9222 5.89031C14.9747 5.8379 15.0104 5.77109 15.0249 5.69835C15.0394 5.62562 15.032 5.55021 15.0037 5.48167C14.9753 5.41313 14.9273 5.35454 14.8657 5.3133C14.804 5.27206 14.7315 5.25003 14.6573 5.25H4.875C4.17881 5.25 3.51113 5.52656 3.01884 6.01884C2.52656 6.51113 2.25 7.17881 2.25 7.875V19.125C2.25 19.8212 2.52656 20.4889 3.01884 20.9812C3.51113 21.4734 4.17881 21.75 4.875 21.75H16.125C16.8212 21.75 17.4889 21.4734 17.9812 20.9812C18.4734 20.4889 18.75 19.8212 18.75 19.125V9.34266C18.75 9.26849 18.7279 9.19599 18.6867 9.13434C18.6455 9.07269 18.5869 9.02465 18.5183 8.9963C18.4498 8.96795 18.3744 8.96057 18.3016 8.97507C18.2289 8.98958 18.1621 9.02534 18.1097 9.07781Z" fill="current"/>
</svg>
