<svg width="current" height="current" viewBox="0 0 24 24" fill="none" xmlns="http://www.w3.org/2000/svg">
<path d="M19.4245 4.58162C18.4512 3.59873 17.2933 2.81782 16.0173 2.28377C14.7414 1.74972 13.3724 1.47304 11.9892 1.46964C10.606 1.46623 9.23573 1.73617 7.95714 2.26393C6.67856 2.7917 5.51685 3.56689 4.53876 4.54498C3.56067 5.52307 2.78547 6.68478 2.25771 7.96337C1.72994 9.24196 1.46001 10.6122 1.46341 11.9954C1.46682 13.3787 1.74349 14.7476 2.27754 16.0236C2.8116 17.2995 3.5925 18.4574 4.5754 19.4307C5.54866 20.4136 6.70654 21.1945 7.98251 21.7285C9.25849 22.2626 10.6274 22.5393 12.0106 22.5427C13.3939 22.5461 14.7641 22.2761 16.0427 21.7484C17.3213 21.2206 18.483 20.4454 19.4611 19.4673C20.4392 18.4892 21.2144 17.3275 21.7421 16.0489C22.2699 14.7703 22.5398 13.4001 22.5364 12.0169C22.533 10.6336 22.2564 9.26471 21.7223 7.98874C21.1883 6.71276 20.4074 5.55488 19.4245 4.58162ZM2.99993 12.0062C2.99959 11.2096 3.1052 10.4166 3.31399 9.64787C3.65805 10.3885 4.15774 11.0283 4.49758 11.7882C4.9368 12.7651 6.11618 12.4941 6.63696 13.3501C7.09914 14.1099 6.60555 15.0708 6.95149 15.8658C7.20274 16.4429 7.79524 16.569 8.20399 16.9908C8.62165 17.4165 8.61274 17.9996 8.67649 18.5546C8.74843 19.2067 8.86511 19.853 9.02571 20.4891C9.02571 20.4938 9.02571 20.499 9.02946 20.5037C5.5218 19.2718 2.99993 15.9282 2.99993 12.0062ZM11.9999 21.0062C11.4973 21.006 10.9956 20.964 10.4999 20.8805C10.5051 20.7535 10.5074 20.6349 10.5201 20.5524C10.634 19.8071 11.0071 19.0782 11.5106 18.5204C12.0079 17.9701 12.6895 17.5979 13.1095 16.9735C13.521 16.3641 13.6443 15.5438 13.4746 14.8318C13.2248 13.7799 11.7956 13.4288 11.0249 12.8583C10.582 12.5302 10.1877 12.023 9.60602 11.9818C9.33789 11.963 9.11336 12.0207 8.84758 11.9522C8.60383 11.889 8.41258 11.7577 8.15289 11.7919C7.66774 11.8557 7.36164 12.3741 6.84039 12.3038C6.34586 12.2377 5.83633 11.6588 5.72383 11.1877C5.57946 10.5821 6.05852 10.3857 6.5718 10.3318C6.78602 10.3093 7.02649 10.2849 7.23227 10.3637C7.50321 10.464 7.63118 10.7293 7.87446 10.8633C8.33055 11.1137 8.42289 10.7138 8.35305 10.3088C8.24852 9.70225 8.12665 9.45521 8.66758 9.03756C9.04258 8.74975 9.36321 8.54162 9.30321 8.02459C9.26758 7.72084 9.10118 7.5835 9.25633 7.28115C9.37399 7.051 9.69696 6.84334 9.90743 6.706C10.4507 6.35162 12.2348 6.37787 11.5059 5.386C11.2916 5.0949 10.8965 4.57459 10.5215 4.50334C10.0527 4.41475 9.84461 4.93787 9.51789 5.1685C9.1804 5.40709 8.52321 5.67803 8.18524 5.30912C7.73055 4.81271 8.48664 4.65006 8.65399 4.30318C8.73133 4.14146 8.65399 3.91693 8.52368 3.70553C8.69274 3.63428 8.86461 3.56818 9.0393 3.50725C9.14878 3.5881 9.27865 3.63681 9.4143 3.64787C9.72789 3.6685 10.0237 3.49881 10.2974 3.71256C10.6012 3.94693 10.8201 4.24318 11.2232 4.31631C11.6132 4.38709 12.0262 4.15975 12.1227 3.76037C12.1813 3.51756 12.1227 3.26115 12.0665 3.01037C13.8196 3.02046 15.5311 3.54549 16.9884 4.52021C16.8946 4.48459 16.7826 4.48881 16.6443 4.55303C16.3598 4.68521 15.9566 5.02178 15.9234 5.35553C15.8854 5.73428 16.4441 5.78771 16.7095 5.78771C17.1079 5.78771 17.5115 5.60959 17.3831 5.14928C17.3273 4.94959 17.2513 4.74193 17.129 4.61631C17.4231 4.82038 17.7048 5.04171 17.9727 5.27912C17.9685 5.28334 17.9643 5.28709 17.9601 5.29178C17.6901 5.57303 17.3765 5.79568 17.1918 6.13787C17.0615 6.37881 16.9148 6.49318 16.6509 6.55553C16.5056 6.58975 16.3396 6.6024 16.2177 6.6999C15.8784 6.96709 16.0715 7.60928 16.3931 7.80193C16.7995 8.04521 17.4023 7.93084 17.7088 7.5835C17.9484 7.31162 18.0895 6.83959 18.5202 6.84006C18.7099 6.83966 18.8921 6.91392 19.0274 7.04678C19.2056 7.23146 19.1704 7.40396 19.2084 7.63459C19.2754 8.04428 19.6368 7.82209 19.8566 7.61537C20.0169 7.90057 20.1615 8.19428 20.2898 8.49521C20.0479 8.8435 19.8557 9.22318 19.274 8.81725C18.9257 8.57396 18.7115 8.22099 18.2741 8.11131C17.8921 8.01756 17.5007 8.11506 17.1234 8.18021C16.6945 8.25475 16.1859 8.28756 15.8606 8.6124C15.546 8.92553 15.3796 9.34459 15.0449 9.65912C14.3976 10.2685 14.1243 10.9337 14.5434 11.7952C14.9465 12.6235 15.7898 13.073 16.6996 13.014C17.5935 12.9544 18.5221 12.436 18.4963 13.7349C18.487 14.1947 18.5831 14.513 18.7241 14.9401C18.8549 15.3338 18.846 15.7154 18.876 16.1218C18.9045 16.5977 18.979 17.0697 19.0982 17.5313C18.258 18.6131 17.1817 19.4885 15.9515 20.0907C14.7212 20.693 13.3697 21.0061 11.9999 21.0062Z" fill="current"/>
</svg>
