<svg width="current" height="current" viewBox="0 0 24 24" fill="none" xmlns="http://www.w3.org/2000/svg">
<path d="M22.1719 1.83045C22.0185 1.67712 21.8241 1.57138 21.612 1.52597C21.3999 1.48056 21.1793 1.49742 20.9765 1.57452L2.22514 8.67186H2.22139C2.00519 8.75501 1.81992 8.90289 1.6909 9.09527C1.56188 9.28766 1.49539 9.51519 1.50052 9.74678C1.50565 9.97837 1.58214 10.2027 1.71955 10.3892C1.85696 10.5757 2.04859 10.7152 2.26827 10.7887L2.28749 10.7948L8.72342 13.5431C8.84895 13.5812 8.98229 13.5857 9.11011 13.5562C9.23793 13.5267 9.35577 13.4641 9.45186 13.3748L19.7812 3.74998C19.812 3.71921 19.8486 3.69479 19.8888 3.67813C19.929 3.66148 19.9721 3.6529 20.0156 3.6529C20.0591 3.6529 20.1022 3.66148 20.1425 3.67813C20.1827 3.69479 20.2192 3.71921 20.25 3.74998C20.2808 3.78076 20.3052 3.8173 20.3218 3.85752C20.3385 3.89773 20.3471 3.94083 20.3471 3.98436C20.3471 4.02789 20.3385 4.07099 20.3218 4.1112C20.3052 4.15142 20.2808 4.18796 20.25 4.21873L10.6247 14.5434C10.5354 14.6395 10.4728 14.7574 10.4433 14.8852C10.4138 15.013 10.4183 15.1463 10.4564 15.2719L13.2056 21.7115C13.2084 21.7209 13.2112 21.7294 13.2145 21.7383C13.3645 22.1728 13.7442 22.4794 14.2031 22.5C14.2233 22.5 14.2303 22.5 14.25 22.5C14.4817 22.5013 14.7084 22.4329 14.9006 22.3037C15.0929 22.1744 15.2419 21.9903 15.3281 21.7753L22.4245 3.02905C22.5027 2.82621 22.5205 2.60506 22.4756 2.39235C22.4308 2.17964 22.3253 1.98447 22.1719 1.83045Z" fill="current"/>
</svg>
